<?xml version="1.0" encoding="utf-8"?>
<!-- Generator: Adobe Illustrator 25.0.0, SVG Export Plug-In . SVG Version: 6.00 Build 0)  -->
<svg version="1.1" id="Layer_1" xmlns="http://www.w3.org/2000/svg" xmlns:xlink="http://www.w3.org/1999/xlink" x="0px" y="0px"
	 viewBox="0 0 832.7 683" style="enable-background:new 0 0 832.7 683;" xml:space="preserve">
<style type="text/css">
	.st0{fill:#E6E6E6;}
	.st1{fill:#91C788;}
	.st2{fill:#3F3D56;}
	.st3{fill:#2F2E41;}
	.st4{fill:#FFB6B6;}
	.st5{fill:#FFB7B7;}
</style>
<path class="st0" d="M111.6,158.1c-22.3,0-31.8,32.3-53.6,36.8c-9.7,2-19.7-2-29.6-2.2c-9.9-0.2-21.8,7-19.7,16.8l189.6-2.9
	c-19.6-2-37.9-10.6-52-24.4C135.9,172,126.1,158.1,111.6,158.1z"/>
<path class="st1" d="M546.6,496.5c-57.2,0-106.1-41.4-115.5-97.8l0-0.2l0.1-0.2c7.5-9,13.5-19,17.9-29.9
	c-5.2,6.7-11.6,12.5-18.7,17.1l-0.7,0.5l0-0.9c-0.1-1.9-0.1-3.9-0.1-5.7c-0.1-40.5,20.8-78.1,55.2-99.4
	c-29.6-30.8-46.2-71.8-46.1-114.5C438.7,74.2,512.9,0,604.2,0c71.4-0.1,134.7,45.6,157.1,113.4l0.1,0.4L761,114
	c-11.3,4.6-21.6,6.8-31.6,6.6c11.3,3.2,23,4.6,34.8,4.2l0.4,0l0.1,0.4c3.3,13.2,4.9,26.7,4.9,40.2c0,0.5,0,1,0,1.5
	c-0.1,21.3,8.9,41.7,24.8,55.9c47.8,43.5,51.3,117.5,7.8,165.4c-4.1,4.5-8.5,8.7-13.3,12.5l-0.2,0.2l-0.3-0.1
	c-17.3-7.9-29.4-16.6-37.6-27.4c5.6,13.6,13.6,25.9,23.8,36.4l0.4,0.5l-0.6,0.3c-35.6,20.7-79.5,21.3-115.5,1.4
	C644.4,462,598.7,496.4,546.6,496.5z"/>
<path class="st2" d="M504.9,683c-1.1,0-2-0.8-2.1-1.8c-0.1-0.6-8.9-64.5-1-149.3c7.3-78.4,30.9-191.2,101.6-283.9
	c0.7-0.9,2-1.1,3-0.4s1.1,2,0.4,3c-70,91.9-93.4,203.9-100.7,281.7c-7.9,84.4,0.9,147.7,1,148.3c0.2,1.2-0.6,2.2-1.8,2.4
	C505.1,683,505,683,504.9,683L504.9,683z"/>
<path class="st2" d="M540.2,370.5c-1.2,0-2.1-1-2.1-2.1c0-0.7,0.3-1.3,0.9-1.7c0.3-0.2,26.1-18.8,64.7-32.9
	c35.7-13.1,90-24.9,145.9-7.1c1.1,0.4,1.7,1.6,1.4,2.7c-0.4,1.1-1.6,1.7-2.7,1.4c-54.8-17.4-108.1-5.8-143.2,7.1
	c-38.1,13.9-63.4,32.2-63.7,32.4C541.1,370.3,540.6,370.5,540.2,370.5z"/>
<path class="st3" d="M269.6,424h-31.8v-93.5h31.8c12.7,0,22.9,10.3,22.9,22.9V401C292.5,413.7,282.3,424,269.6,424z"/>
<path class="st2" d="M265.2,373.9c-2.2,0-4-1.8-4-4v-34.7h8v34.7C269.2,372.1,267.4,373.9,265.2,373.9z"/>
<path class="st2" d="M274.8,416.6h-23.3c-2.8,0-5.1-2.3-5.1-5.1v-13.9c0-2.8,2.3-5.1,5.1-5.1h23.3c2.8,0,5.1,2.3,5.1,5.1v13.9
	C279.9,414.4,277.6,416.6,274.8,416.6z"/>
<path class="st3" d="M207,320.8c-0.5,0-1.1-0.2-1.5-0.5c-0.5-0.4-0.9-1.1-0.9-1.7c-0.8-12,1.3-24,6.1-35c3.2-7.4,6.9-12.2,11.6-15.1
	c6.3-3.8,15-4.1,23.7-0.8c5,1.9,8.6,4.3,11.1,7.5c3.2,4.2,4.3,9.6,4.9,14.9c0.9,7.9,1.1,15.9,0.7,23.8c0,0.8-0.5,1.6-1.3,2
	c-0.8,0.4-1.8,0.3-2.5-0.2c-0.1-0.1-0.3-0.2-0.5-0.3c-1.6-0.8-3.5-0.8-5.1,0.1c-0.6,0.3-1.1,0.7-1.6,1.2l-3.2,2.6
	c-0.8,0.6-1.9,0.7-2.8,0.2c-2.3-1.3-4.8-2.1-7.5-2.2c-3.5-0.1-7,0.1-10.4,0.8l-20.4,3C207.2,320.8,207.1,320.8,207,320.8z"/>
<polygon class="st4" points="204.3,660.9 193.4,660.9 188.2,618.9 204.3,618.9 "/>
<path class="st3" d="M210.1,681.6h-7.7l-1.4-7.3l-3.5,7.3H177c-2.5,0-4.6-2.1-4.6-4.6c0-1.5,0.7-2.9,2-3.8l16.4-11.3v-7.4l17.2,1
	L210.1,681.6z"/>
<polygon class="st4" points="329.6,651.6 319.6,655.8 298.5,619.1 313.3,612.9 "/>
<path class="st3" d="M343,668.4l-7.1,3l-4.1-6.2l-0.4,8.1l-18.9,7.9c-2.3,1-5-0.1-6-2.5c-0.6-1.4-0.5-3,0.4-4.3l10.7-16.8l-2.9-6.8
	l16.3-5.7L343,668.4z"/>
<polygon class="st4" points="199.2,374.8 196,416.6 175.3,479.1 167,474.3 178.3,410.7 182.1,374.1 "/>
<circle class="st4" cx="170.5" cy="479.5" r="8.7"/>
<path class="st3" d="M252.3,423v11.5c0,0,17.9,31.5,10.6,45l26.8,73.3c0,0,36.3,36.3,33.2,62.3l2.1,8.3l-23.9,10.4l-5.2-7.3
	L255.4,557l-34.3-63.3l-6.2,74.8c0,0,4.2,58.2-7.3,64.4l-1,9.3h-24.2v-8.9c0,0-9-31.6-3.8-55.5L176.5,477c0,0,9.3-42.6,20.8-49.8
	l4.2-10.4L252.3,423z"/>
<path class="st0" d="M271.4,343l-22.6-10.6l-6.5-11.4l-22,1.2l-6.6,10.9l-19.6,4l2.9,70.7c-1.3,2.2-1.7,4.8-1.3,7.3
	c0.7,4.4,4.2,0.9,0.7,4.4s-6.1,1.7-4.4,4.8s-2.6,7.8-2.6,7.8s55.6,28.3,71.3-7.8c0,0,3.1-10.6-2.1-32.7S271.4,343,271.4,343z"/>
<path class="st0" d="M200.4,341.6l-6.4-4.5c0,0-8.9,3.6-9.2,11s-5.4,29.5-5.4,29.5l20.3,10.9L200.4,341.6z"/>
<polygon class="st4" points="276.7,378.3 273.6,420.1 238.9,472.1 230.6,467.3 255.8,414.2 259.7,377.6 "/>
<path class="st0" d="M260.8,345.4l10.6-2.4c0,0,6.4,2,7.3,11.6s1.6,26.3,1.6,26.3L258,397.3l-5.5-23.4L260.8,345.4z"/>
<circle class="st4" cx="233.2" cy="472.5" r="8.7"/>
<circle class="st5" cx="229.2" cy="297" r="20.3"/>
<path class="st3" d="M212.7,294L212.7,294c-2.6,0-5.2,0-7.8,0c-0.6,0-1.2-0.3-1.7-0.7c-0.4-0.4-0.7-1-0.6-1.6
	c0.4-8.7,5-16.7,12.4-21.4l0,0c12.2-7.5,28.2-3.6,35.6,8.6c2.2,3.7,3.5,7.8,3.8,12.1c0.1,1.3-0.9,2.3-2.2,2.4c0,0,0,0,0,0
	c-9,0.4-18.9,0.6-32.3,0.6h0c-0.9,0-1.8-0.6-2.1-1.4l-0.2-0.5c-0.3-0.7-1.1-1.1-1.8-0.8c-0.4,0.2-0.7,0.5-0.8,1
	C214.7,293.2,213.7,294,212.7,294z"/>
<path class="st2" d="M258.1,396.3c-5.5-5.1-7.8-12.6-7.8-19.9c0-8.4,3-16.4,6.9-23.7c2.4-4.4,5.1-8.6,7.8-12.9
	c0.9-1.4-1.3-2.7-2.3-1.3c-9.2,14.3-19.3,31.2-13.4,48.7c1.4,4.2,3.7,7.9,6.9,10.9C257.5,399.3,259.3,397.5,258.1,396.3L258.1,396.3
	z"/>
<path class="st0" d="M314.2,58.2c-10.3-10.2-20.1-24.1-34.6-24.1c-22.3,0-31.8,32.3-53.6,36.8c-9.7,2-19.7-2-29.6-2.2
	c-9.9-0.2-21.8,7-19.7,16.8l189.6-2.9C346.6,80.6,328.3,72,314.2,58.2z"/>
<path class="st0" d="M736.6,15.6c-22.3,0-31.8,32.3-53.6,36.8c-9.7,2-19.7-2-29.6-2.2c-9.9-0.2-21.8,7-19.7,16.8l189.6-2.9
	c-19.6-2-37.9-10.6-52-24.4C760.9,29.4,751.1,15.5,736.6,15.6z"/>
</svg>
